HIERARCHY
ROOT Hips
{
	OFFSET -3.958830 18.904000 13.208200
	CHANNELS 6 Xposition Yposition Zposition Zrotation Yrotation Xrotation 
	JOINT LHipJoint
	{
		OFFSET 0.000000 0.000000 0.000000
		CHANNELS 3 Zrotation Yrotation Xrotation
		JOINT LeftUpLeg
		{
			OFFSET 1.800000 -1.400000 0.085000
			CHANNELS 3 Zrotation Yrotation Xrotation
			JOINT LeftLeg
			{
				OFFSET 2.215000 -6.000000 0.000000
				CHANNELS 3 Zrotation Yrotation Xrotation
				JOINT LeftFoot
				{
					OFFSET 2.500000 -6.900000 0.000000
					CHANNELS 3 Zrotation Yrotation Xrotation
					JOINT LeftToeBase
					{
						OFFSET 0.200000 -0.500000 1.950000
						CHANNELS 3 Zrotation Yrotation Xrotation
						End Site
						{
							OFFSET 0.000000 0.000000 0.000000
						}
					}
				}
			}
		}
	}
	JOINT RHipJoint
	{
		OFFSET 0.000000 0.000000 0.000000
		CHANNELS 3 Zrotation Yrotation Xrotation
		JOINT RightUpLeg
		{
			OFFSET -1.800000 -1.400000 0.085000
			CHANNELS 3 Zrotation Yrotation Xrotation
			JOINT RightLeg
			{
				OFFSET -2.215000 -6.000000 0.000000
				CHANNELS 3 Zrotation Yrotation Xrotation
				JOINT RightFoot
				{
					OFFSET -2.500000 -6.900000 0.000000
					CHANNELS 3 Zrotation Yrotation Xrotation
					JOINT RightToeBase
					{
						OFFSET -0.200000 -0.500000 1.950000
						CHANNELS 3 Zrotation Yrotation Xrotation
						End Site
						{
							OFFSET 0.000000 0.000000 0.000000
						}
					}
				}
			}
		}
	}
	JOINT LowerBack
	{
		OFFSET 0.000000 0.000000 0.000000
		CHANNELS 3 Zrotation Yrotation Xrotation
		JOINT Spine
		{
			OFFSET -0.087000 1.940000 -0.288900
			CHANNELS 3 Zrotation Yrotation Xrotation
			JOINT Spine1
			{
				OFFSET 0.000000 1.950000 0.060000
				CHANNELS 3 Zrotation Yrotation Xrotation
				JOINT Neck
				{
					OFFSET 0.000000 0.000000 0.000000
					CHANNELS 3 Zrotation Yrotation Xrotation
					JOINT Neck1
					{
						OFFSET 0.000000 1.600000 0.340000
						CHANNELS 3 Zrotation Yrotation Xrotation
						JOINT Head
						{
							OFFSET 0.000000 1.667000 -0.240000
							CHANNELS 3 Zrotation Yrotation Xrotation
							End Site
							{
								OFFSET 0.000000 0.000000 0.000000
							}
						}
					}
				}
				JOINT LeftShoulder
				{
					OFFSET 0.000000 0.000000 0.000000
					CHANNELS 3 Zrotation Yrotation Xrotation
					JOINT LeftArm
					{
						OFFSET 2.700000 1.550000 -0.730000
						CHANNELS 3 Zrotation Yrotation Xrotation
						JOINT LeftForeArm
						{
							OFFSET 5.450000 0.000000 0.000000
							CHANNELS 3 Zrotation Yrotation Xrotation
							JOINT LeftHand
							{
								OFFSET 3.450000 0.000000 0.000000
								CHANNELS 3 Zrotation Yrotation Xrotation
								JOINT LeftHandIndex1
								{
									OFFSET 0.750000 0.000000 0.000000
									CHANNELS 3 Zrotation Yrotation Xrotation
									End Site
									{
										OFFSET 0.000000 0.000000 0.000000
									}
								}
							}
						}
					}
				}
				JOINT RightShoulder
				{
					OFFSET 0.000000 0.000000 0.000000
					CHANNELS 3 Zrotation Yrotation Xrotation
					JOINT RightArm
					{
						OFFSET -2.700000 1.550000 -0.730000
						CHANNELS 3 Zrotation Yrotation Xrotation
						JOINT RightForeArm
						{
							OFFSET -5.450000 0.000000 0.000000
							CHANNELS 3 Zrotation Yrotation Xrotation
							JOINT RightHand
							{
								OFFSET -3.450000 0.000000 0.000000
								CHANNELS 3 Zrotation Yrotation Xrotation
								JOINT RightHandIndex1
								{
									OFFSET -0.750000 0.000000 0.000000
									CHANNELS 3 Zrotation Yrotation Xrotation
									End Site
									{
										OFFSET 0.000000 0.000000 0.000000
									}
								}
							}
						}
					}
				}
			}
		}
	}
}
MOTION
Frames: 12
Frame Time: 0.016667
1.593300 16.508690 -1.997640 -7.941481 -18.862082 -11.618992 -15.555279 13.940037 4.684288 31.200291 -7.596138 -9.784140 -23.058980 18.816741 36.020676 1.336133 10.613787 0.876794 0.301700 0.094510 0.316550 18.045499 -9.302551 1.489575 0.067299 -0.701727 -24.752155 -20.945958 0.219630 34.204314 -0.395075 -4.589740 2.879023 -0.100930 -0.012000 0.026090 -2.480806 -6.994085 -7.944543 4.649061 -15.150808 42.482797 11.786124 -14.084518 -9.274745 -3.439441 -9.422871 -13.279523 -24.034084 19.161041 19.852341 -2.322640 17.136180 -0.159560 4.655482 1.911774 8.411857 -33.878993 -3.826964 -2.069619 11.312060 -15.271091 -1.359663 -3.305000 3.372686 0.282910 -0.036270 -0.003830 0.119960 6.574881 -4.142354 4.439804 60.315473 -8.391970 -6.215093 122.482583 52.860232 70.026448 2.459227 -2.239017 -0.013380 -0.161520 -0.287170 -0.100050 
1.606030 16.479470 -1.941580 -9.835926 -16.484665 -10.052526 -15.667011 13.619124 5.119271 34.904976 -7.057741 -12.298253 -25.650313 20.381967 36.012532 1.448743 11.030470 0.717221 0.315010 0.105940 0.320750 18.036146 -9.057973 1.409728 -0.150834 -0.090017 -24.200066 -18.005231 -0.747746 35.196881 -0.367149 -4.494595 2.908884 -0.108840 -0.042650 0.033520 -2.434153 -6.906601 -8.125542 8.601991 -15.826023 41.222943 10.722778 -12.666175 -10.408994 -2.344408 -9.709592 -12.964200 -24.154401 17.991924 21.608605 -2.221030 15.717220 0.111190 4.646532 3.571193 7.325214 -38.273221 -3.543216 -2.755662 11.390074 -17.513615 -1.622310 -3.300460 3.384706 0.277530 -0.057630 0.010350 0.119980 3.872377 -3.968748 5.072614 59.067386 -7.516358 -5.504127 122.770929 51.732446 69.132166 2.458208 -2.319164 0.016760 -0.188840 -0.299030 -0.091130 
1.624170 16.473120 -1.897680 -11.480319 -14.477849 -9.482942 -15.778468 13.380998 5.535288 38.308125 -6.030731 -13.858460 -28.192845 21.863821 35.490629 1.567840 11.335276 0.612997 0.332940 0.122800 0.332580 18.008656 -8.856593 1.339173 -0.507394 0.542458 -22.681904 -14.940404 -1.701937 35.564236 -0.351494 -4.345578 2.982571 -0.126650 -0.091200 0.016660 -2.334177 -6.844947 -8.336681 11.622797 -15.999454 41.752232 10.118810 -10.436617 -13.042436 -1.285178 -10.057227 -12.604748 -24.776056 17.365280 24.627611 -1.822660 14.187940 -0.582320 3.973438 6.014959 6.067463 -42.466159 -1.127319 -4.583018 11.395090 -23.352140 -2.089733 -3.235427 3.378578 0.304800 -0.109920 0.042940 0.120210 1.875919 -3.959717 5.632548 56.300629 -6.112472 -3.935142 125.060515 50.438703 70.942537 2.468636 -2.347059 0.042960 -0.191680 -0.317090 -0.086610 
1.648150 16.468710 -1.845700 -12.667666 -12.008299 -8.587941 -15.933764 13.285073 5.945232 40.856900 -4.662630 -16.233536 -30.051882 23.237991 35.330823 1.675613 11.556295 0.543981 0.309640 0.080880 0.328310 17.924456 -8.621388 1.269315 -1.598080 1.177474 -21.785183 -11.319305 -2.896248 35.979783 -0.316470 -4.242181 3.025420 -0.177160 -0.135110 0.008450 -2.096426 -7.069595 -8.597989 13.677290 -15.589889 42.016175 9.895723 -7.241203 -16.548610 0.115548 -10.030196 -12.393639 -24.151556 16.363956 28.565385 -1.873610 12.971770 0.092450 3.950280 9.702149 4.750707 -46.498158 2.766158 -6.712437 9.069978 -31.955468 -1.924283 -3.146868 3.433885 0.325670 -0.151180 0.061270 0.106980 -1.497132 -4.710966 6.438847 54.168380 -5.313556 -2.320295 126.946561 49.178856 72.692607 2.482998 -2.393565 0.059990 -0.224810 -0.320390 -0.088710 
1.675870 16.469460 -1.792970 -13.331720 -9.841522 -6.765823 -16.092250 13.191946 6.330251 42.402801 -2.776750 -19.243866 -31.932456 24.592376 34.743732 1.754471 11.716604 0.521724 0.241860 -0.029030 0.296240 17.829426 -8.365899 1.268138 -2.922134 2.137582 -21.792159 -7.844446 -3.868040 35.235307 -0.231187 -4.034974 3.127782 -0.254300 -0.125050 -0.003110 -1.839350 -7.285405 -8.894653 14.754890 -14.527734 41.677562 10.152682 -3.246497 -20.684223 0.965606 -9.591927 -12.495195 -21.937080 15.646757 32.158099 -1.436430 12.354940 1.853950 5.246913 14.752392 3.889799 -48.973786 9.544383 -8.356082 1.866615 -42.728556 0.852051 -3.046854 3.579109 0.348610 -0.156040 0.038840 0.093980 -5.175434 -6.592610 7.008801 51.873878 -4.453832 -0.002506 130.474733 48.149529 77.618649 2.470359 -2.425251 0.038020 -0.242900 -0.297200 -0.100950 
1.708690 16.475520 -1.740930 -13.717482 -7.191753 -5.113602 -16.237390 13.150218 6.644113 42.826399 -0.990589 -22.434809 -32.946590 25.423638 34.249884 1.798474 11.782139 0.528447 0.145520 -0.169730 0.263990 17.718646 -8.207091 1.259243 -4.456443 2.799360 -21.485108 -4.696572 -4.690205 33.837220 -0.125233 -3.854029 3.222150 -0.342540 -0.105710 -0.004960 -1.556411 -7.467459 -9.207364 14.951146 -12.409905 40.780581 10.419498 0.959910 -22.798996 1.681440 -8.049319 -13.177855 -17.352227 13.153609 35.188403 -2.000060 11.636220 4.639120 7.273310 18.615269 3.475047 -50.243694 14.944384 -8.038672 -8.577249 -51.472074 6.670766 -2.960546 3.808673 0.335370 -0.123890 -0.006960 0.063070 -9.287441 -8.098670 7.985928 50.554831 -4.812524 0.906376 134.333519 47.795670 82.829578 2.454695 -2.462393 0.014340 -0.282790 -0.264520 -0.120290 
1.750770 16.482490 -1.703190 -13.672059 -3.597525 -4.288785 -16.301633 13.123163 6.795837 41.736224 0.301471 -25.704479 -31.873874 26.022784 35.725542 1.787567 11.861983 0.507120 0.078910 -0.271500 0.260390 17.636859 -8.271842 1.242509 -6.364578 3.082629 -20.530023 -1.964571 -5.311774 31.985053 -0.043845 -3.702727 3.286852 -0.397910 -0.106900 -0.006830 -1.390871 -7.296152 -9.426912 14.840950 -9.699800 39.316737 10.755823 4.483977 -23.187065 1.746932 -6.247636 -13.847421 -12.889578 10.109797 37.521203 -2.475510 10.024110 5.932360 8.187896 20.478000 3.124141 -50.975344 18.742092 -7.824155 -13.818424 -55.800067 10.747068 -2.922767 3.912300 0.337370 -0.105690 -0.033500 0.023190 -11.102958 -8.393592 8.984849 48.489072 -5.580458 0.473865 139.236653 48.930024 90.679435 2.462632 -2.413520 -0.008680 -0.304520 -0.234790 -0.147280 
1.804380 16.490540 -1.677610 -13.125629 0.448763 -3.827782 -16.276487 13.090631 6.766697 39.062830 0.938534 -28.952986 -28.888031 26.175859 38.710975 1.740370 11.945490 0.473544 0.004850 -0.384780 0.252520 17.591372 -8.535208 1.269078 -8.563243 3.200131 -19.623636 0.108279 -5.714395 30.087221 0.032669 -3.621316 3.317900 -0.452280 -0.094970 0.002850 -1.368067 -6.719718 -9.528259 14.332355 -6.765041 37.375439 10.890211 7.278381 -22.913576 1.407042 -4.042310 -14.304679 -8.047305 6.840980 38.411070 -3.095060 8.414700 7.299350 8.537046 21.497390 2.879432 -49.684926 21.987999 -7.088102 -20.959088 -59.524469 15.951622 -2.915986 4.039488 0.333030 -0.072000 -0.069810 -0.025320 -11.644501 -8.991380 9.707987 46.799813 -6.839501 -0.592964 143.145185 51.691613 99.596838 2.460289 -2.302095 -0.034190 -0.324810 -0.187410 -0.176970 
1.869890 16.498540 -1.657240 -12.022884 5.290106 -3.254020 -16.173073 13.043086 6.591582 34.960470 0.750658 -32.276676 -24.630411 25.499758 42.341602 1.646969 11.918978 0.456172 -0.067250 -0.466880 0.220100 17.575611 -8.974398 1.341540 -11.140888 3.121959 -18.951946 1.483301 -5.911221 28.056526 0.103626 -3.563031 3.334715 -0.485220 -0.077320 0.001760 -1.487027 -5.779308 -9.511664 13.342165 -3.921170 34.510258 10.895305 8.983299 -22.385741 1.003374 -1.862834 -14.422145 -3.642179 3.792952 38.547720 -3.635160 6.736750 8.425970 8.117337 22.069435 2.572769 -47.989421 24.772923 -7.026534 -23.190784 -62.184963 18.315088 -2.971326 4.074334 0.322140 -0.037770 -0.103160 -0.069930 -11.245657 -10.001282 10.011847 45.205955 -8.276126 -1.555092 147.401408 54.083333 109.007935 2.437358 -2.191259 -0.058760 -0.324510 -0.130850 -0.193500 
1.947140 16.535470 -1.649260 -10.502682 11.116876 -2.824410 -16.071404 13.115720 6.259876 29.634890 -0.298800 -35.225979 -19.234817 23.662313 46.104763 1.518891 11.685543 0.508663 -0.098730 -0.529590 0.235230 17.526860 -9.472992 1.432123 -13.893064 2.875516 -18.117280 2.304252 -6.038603 26.389362 0.144084 -3.575314 3.317071 -0.511180 -0.077740 0.012320 -1.584571 -4.922653 -9.375536 11.181905 -1.193069 32.128874 11.928902 10.530208 -22.289730 0.290591 -0.096907 -14.534001 -0.240506 1.078344 38.523496 -4.087910 4.859380 9.282570 8.482621 22.495219 2.341942 -47.195771 26.343018 -7.344813 -23.322502 -62.015225 18.615578 -3.000797 4.091783 0.323700 -0.020170 -0.119670 -0.104610 -10.863110 -10.859258 10.171288 43.955725 -9.550826 -2.687526 152.303755 56.707416 119.932135 2.406116 -2.104243 -0.070340 -0.331760 -0.104130 -0.215050 
2.054820 16.583490 -1.651370 -9.914744 16.472863 -2.407505 -15.966752 13.225392 5.889448 24.546644 -1.317935 -37.682516 -13.219556 20.942438 49.323947 1.322516 11.282201 0.636941 -0.178040 -0.632970 0.194260 17.512048 -9.877497 1.568158 -15.337793 2.976526 -17.712801 2.444470 -6.029091 25.604507 0.196654 -3.627290 3.303976 -0.536110 -0.013070 -0.005640 -1.775874 -4.226140 -9.194670 11.229060 0.572053 30.263250 11.263622 11.580952 -22.406976 0.011642 1.014860 -14.338773 1.867678 -0.582760 36.860743 -4.482830 3.727800 10.226220 8.328876 23.193629 1.860827 -45.906841 28.160096 -7.889386 -20.234693 -62.404054 17.122610 -3.107601 4.035876 0.323260 0.024370 -0.178010 -0.131450 -10.761592 -11.605139 10.217310 42.934794 -10.103454 -3.515841 157.962589 59.303780 132.209775 2.345651 -2.039470 -0.135340 -0.286230 -0.040100 -0.230980 
2.164690 16.645190 -1.673140 -9.995531 21.458006 -3.217020 -15.863603 13.461756 5.489653 19.835853 -2.088323 -38.912851 -7.006862 17.571559 51.667763 1.089306 10.699885 0.816934 -0.267340 -0.757580 0.157620 17.505773 -10.239793 1.683064 -15.771394 3.221099 -16.866416 2.021433 -5.971409 26.015282 0.233127 -3.758381 3.248343 -0.562730 0.041040 -0.030300 -2.029857 -3.771678 -8.976771 13.092465 1.814297 30.481304 8.434576 12.780388 -23.233455 -0.136432 1.843425 -14.124209 3.382750 -1.865875 35.105162 -4.530240 2.724170 10.876980 7.912478 23.419866 1.150907 -42.338428 28.588557 -7.481807 -18.560634 -61.516642 15.913464 -3.199534 4.022929 0.339110 0.055050 -0.240820 -0.177940 -10.786117 -11.384857 10.937224 42.929439 -10.848256 -4.100274 165.029388 61.150249 145.527045 2.305576 -2.020682 -0.215800 -0.247320 0.037600 -0.261250 
